<svg width="1559" height="360" viewBox="0 0 1559 360" fill="none" xmlns="http://www.w3.org/2000/svg">
<rect width="1559" height="360" fill="white"/>
<ellipse cx="779" cy="271.5" rx="726" ry="36.5" fill="#D9D9D9"/>
<g filter="url(#filter0_d_703_2)">
<path d="M927.85 271V89.1818H1048.23V120.876H966.291V164.2H1040.24V195.893H966.291V271H927.85ZM1111.2 89.1818V271H1073.38V89.1818H1111.2ZM1203.11 273.663C1189.32 273.663 1177.39 270.734 1167.33 264.874C1157.33 258.956 1149.6 250.729 1144.16 240.194C1138.71 229.6 1135.99 217.319 1135.99 203.351C1135.99 189.265 1138.71 176.954 1144.16 166.419C1149.6 155.825 1157.33 147.598 1167.33 141.739C1177.39 135.82 1189.32 132.861 1203.11 132.861C1216.9 132.861 1228.79 135.82 1238.8 141.739C1248.86 147.598 1256.61 155.825 1262.06 166.419C1267.5 176.954 1270.22 189.265 1270.22 203.351C1270.22 217.319 1267.5 229.6 1262.06 240.194C1256.61 250.729 1248.86 258.956 1238.8 264.874C1228.79 270.734 1216.9 273.663 1203.11 273.663ZM1203.29 244.366C1209.56 244.366 1214.8 242.591 1219 239.04C1223.2 235.429 1226.37 230.517 1228.5 224.303C1230.69 218.088 1231.78 211.015 1231.78 203.085C1231.78 195.154 1230.69 188.081 1228.5 181.866C1226.37 175.652 1223.2 170.74 1219 167.129C1214.8 163.519 1209.56 161.714 1203.29 161.714C1196.95 161.714 1191.63 163.519 1187.31 167.129C1183.04 170.74 1179.82 175.652 1177.63 181.866C1175.5 188.081 1174.43 195.154 1174.43 203.085C1174.43 211.015 1175.5 218.088 1177.63 224.303C1179.82 230.517 1183.04 235.429 1187.31 239.04C1191.63 242.591 1196.95 244.366 1203.29 244.366ZM1318.3 271L1281.19 134.636H1319.45L1340.58 226.256H1341.82L1363.84 134.636H1401.39L1423.77 225.723H1424.92L1445.69 134.636H1483.87L1446.85 271H1406.81L1383.37 185.24H1381.69L1358.25 271H1318.3Z" fill="#4A4A4A"/>
</g>
<g filter="url(#filter1_d_703_2)">
<path d="M146.319 271H81.866V89.1818H146.852C165.14 89.1818 180.884 92.8217 194.082 100.102C207.28 107.322 217.431 117.709 224.533 131.263C231.694 144.816 235.275 161.033 235.275 179.913C235.275 198.853 231.694 215.129 224.533 228.741C217.431 242.354 207.221 252.8 193.904 260.08C180.647 267.36 164.785 271 146.319 271ZM120.307 238.063H144.721C156.085 238.063 165.643 236.051 173.397 232.026C181.209 227.942 187.068 221.639 190.975 213.116C194.94 204.535 196.923 193.467 196.923 179.913C196.923 166.478 194.94 155.499 190.975 146.977C187.068 138.454 181.239 132.18 173.485 128.156C165.732 124.131 156.174 122.119 144.81 122.119H120.307V238.063ZM348.002 165.087V195.094H265.082V165.087H348.002ZM380.938 271V89.1818H419.379V239.306H497.327V271H380.938ZM560.959 273.575C552.258 273.575 544.505 272.065 537.699 269.047C530.892 265.969 525.507 261.442 521.541 255.464C517.635 249.427 515.682 241.91 515.682 232.914C515.682 225.338 517.073 218.976 519.854 213.827C522.636 208.678 526.424 204.535 531.218 201.398C536.012 198.261 541.457 195.893 547.553 194.295C553.708 192.697 560.16 191.573 566.907 190.922C574.838 190.093 581.23 189.324 586.083 188.614C590.936 187.844 594.458 186.72 596.648 185.24C598.838 183.76 599.932 181.571 599.932 178.67V178.138C599.932 172.515 598.157 168.165 594.606 165.087C591.114 162.01 586.142 160.471 579.691 160.471C572.885 160.471 567.469 161.98 563.445 164.999C559.42 167.958 556.757 171.687 555.454 176.185L520.476 173.344C522.251 165.058 525.743 157.896 530.952 151.859C536.16 145.763 542.878 141.088 551.104 137.832C559.39 134.518 568.978 132.861 579.869 132.861C587.444 132.861 594.695 133.749 601.619 135.524C608.603 137.3 614.788 140.052 620.174 143.781C625.619 147.509 629.91 152.303 633.047 158.163C636.184 163.963 637.752 170.917 637.752 179.026V271H601.886V252.09H600.82C598.63 256.352 595.701 260.11 592.031 263.365C588.362 266.561 583.952 269.076 578.803 270.911C573.654 272.687 567.706 273.575 560.959 273.575ZM571.79 247.474C577.353 247.474 582.266 246.379 586.527 244.189C590.788 241.94 594.132 238.921 596.559 235.134C598.985 231.346 600.199 227.055 600.199 222.261V207.79C599.015 208.559 597.387 209.269 595.316 209.92C593.304 210.512 591.025 211.075 588.48 211.607C585.935 212.081 583.39 212.525 580.845 212.939C578.3 213.294 575.992 213.62 573.92 213.915C569.481 214.567 565.605 215.602 562.29 217.023C558.976 218.443 556.401 220.367 554.567 222.793C552.732 225.161 551.815 228.12 551.815 231.671C551.815 236.82 553.679 240.756 557.408 243.479C561.195 246.142 565.989 247.474 571.79 247.474ZM667.804 271V89.1818H705.623V157.541H706.777C708.434 153.872 710.831 150.143 713.968 146.355C717.164 142.508 721.307 139.312 726.397 136.767C731.546 134.163 737.938 132.861 745.573 132.861C755.517 132.861 764.69 135.465 773.095 140.673C781.499 145.822 788.217 153.605 793.247 164.022C798.278 174.379 800.794 187.371 800.794 202.996C800.794 218.206 798.337 231.05 793.425 241.526C788.572 251.942 781.943 259.844 773.539 265.229C765.193 270.556 755.842 273.219 745.485 273.219C738.146 273.219 731.902 272.006 726.752 269.58C721.662 267.153 717.49 264.105 714.235 260.435C710.979 256.707 708.494 252.948 706.777 249.161H705.09V271H667.804ZM704.824 202.818C704.824 210.927 705.949 217.999 708.198 224.036C710.447 230.073 713.702 234.778 717.963 238.152C722.225 241.466 727.403 243.124 733.5 243.124C739.655 243.124 744.863 241.437 749.125 238.063C753.386 234.63 756.612 229.896 758.801 223.859C761.05 217.763 762.175 210.749 762.175 202.818C762.175 194.946 761.08 188.022 758.89 182.044C756.7 176.066 753.475 171.391 749.213 168.017C744.952 164.643 739.714 162.957 733.5 162.957C727.344 162.957 722.136 164.584 717.875 167.839C713.672 171.095 710.447 175.711 708.198 181.689C705.949 187.667 704.824 194.71 704.824 202.818Z" fill="#007ACC"/>
</g>
<defs>
<filter id="filter0_d_703_2" x="923.85" y="89.1816" width="564.019" height="192.482" filterUnits="userSpaceOnUse" color-interpolation-filters="sRGB">
<feFlood flood-opacity="0" result="BackgroundImageFix"/>
<feColorMatrix in="SourceAlpha" type="matrix" values="0 0 0 0 0 0 0 0 0 0 0 0 0 0 0 0 0 0 127 0" result="hardAlpha"/>
<feOffset dy="4"/>
<feGaussianBlur stdDeviation="2"/>
<feComposite in2="hardAlpha" operator="out"/>
<feColorMatrix type="matrix" values="0 0 0 0 0 0 0 0 0 0 0 0 0 0 0 0 0 0 0.25 0"/>
<feBlend mode="normal" in2="BackgroundImageFix" result="effect1_dropShadow_703_2"/>
<feBlend mode="normal" in="SourceGraphic" in2="effect1_dropShadow_703_2" result="shape"/>
</filter>
<filter id="filter1_d_703_2" x="77.866" y="89.1816" width="726.928" height="192.393" filterUnits="userSpaceOnUse" color-interpolation-filters="sRGB">
<feFlood flood-opacity="0" result="BackgroundImageFix"/>
<feColorMatrix in="SourceAlpha" type="matrix" values="0 0 0 0 0 0 0 0 0 0 0 0 0 0 0 0 0 0 127 0" result="hardAlpha"/>
<feOffset dy="4"/>
<feGaussianBlur stdDeviation="2"/>
<feComposite in2="hardAlpha" operator="out"/>
<feColorMatrix type="matrix" values="0 0 0 0 0 0 0 0 0 0 0 0 0 0 0 0 0 0 0.25 0"/>
<feBlend mode="normal" in2="BackgroundImageFix" result="effect1_dropShadow_703_2"/>
<feBlend mode="normal" in="SourceGraphic" in2="effect1_dropShadow_703_2" result="shape"/>
</filter>
</defs>
</svg>
